<?xml version="1.0" encoding="UTF-8" standalone="no"?>
<!-- Created with Inkscape (http://www.inkscape.org/) -->

<svg
   version="1.1"
   id="svg1"
   width="389"
   height="336"
   viewBox="0 0 389 336"
   sodipodi:docname="Logo Menu.svg"
   inkscape:version="1.3.2 (091e20ef0f, 2023-11-25, custom)"
   xmlns:inkscape="http://www.inkscape.org/namespaces/inkscape"
   xmlns:sodipodi="http://sodipodi.sourceforge.net/DTD/sodipodi-0.dtd"
   xmlns="http://www.w3.org/2000/svg"
   xmlns:svg="http://www.w3.org/2000/svg">
  <defs
     id="defs1" />
  <sodipodi:namedview
     id="namedview1"
     pagecolor="#ffffff"
     bordercolor="#000000"
     borderopacity="0.25"
     inkscape:showpageshadow="2"
     inkscape:pageopacity="0.0"
     inkscape:pagecheckerboard="0"
     inkscape:deskcolor="#d1d1d1"
     inkscape:zoom="1.4142136"
     inkscape:cx="135.05739"
     inkscape:cy="104.6518"
     inkscape:window-width="1920"
     inkscape:window-height="1010"
     inkscape:window-x="0"
     inkscape:window-y="0"
     inkscape:window-maximized="1"
     inkscape:current-layer="g1"
     showgrid="false">
    <inkscape:grid
       id="grid6"
       units="px"
       originx="0"
       originy="0"
       spacingx="1"
       spacingy="1"
       empcolor="#0099e5"
       empopacity="0.30196078"
       color="#0099e5"
       opacity="0.14901961"
       empspacing="5"
       dotted="false"
       gridanglex="30"
       gridanglez="30"
       visible="false" />
  </sodipodi:namedview>
  <g
     inkscape:groupmode="layer"
     inkscape:label="Image"
     id="g1"
     style="display:inline">
    <g
       id="g7"
       transform="matrix(1.0638695,0,0,1.7389375,166.42352,-267.24794)"
       style="display:inline;fill:#000000">
      <g
         id="g4"
         transform="matrix(0.95984541,0,0,0.90444936,1.6648172,21.905351)">
        <path
           d="m 55.594874,244.75285 h -7.639593 c -0.324277,0.85304 -0.600867,1.61246 -0.829769,2.27825 -0.228902,0.64498 -0.419653,1.20674 -0.572254,1.68527 -0.133526,0.47854 -0.228902,0.88426 -0.286127,1.21716 -0.05723,0.3329 -0.08584,0.60337 -0.08584,0.81142 0,0.58257 0.171676,0.98829 0.515029,1.21714 0.343352,0.20807 0.915606,0.3121 1.716762,0.3121 v 1.18593 h -6.952889 v -1.18593 c 0.438729,-0.0625 0.810694,-0.14568 1.115896,-0.24967 0.324277,-0.10402 0.600867,-0.24967 0.829769,-0.43693 0.247977,-0.18725 0.457804,-0.42652 0.629479,-0.7178 0.190752,-0.3121 0.371966,-0.6866 0.543642,-1.12352 l 7.439304,-20.31696 h 1.230346 l 6.495086,17.60179 c 0.438729,1.16513 0.820232,2.1014 1.144509,2.8088 0.324277,0.68659 0.639017,1.20674 0.944219,1.56044 0.305202,0.3537 0.62948,0.58256 0.972832,0.68659 0.362428,0.10402 0.717817,0.18861 1.213772,0.18861 l 0.0738,1.18458 h -9.32774 v -1.21714 c 1.010983,0 1.707225,-0.10402 2.088728,-0.31209 0.381503,-0.20805 0.572254,-0.55135 0.572254,-1.02989 0,-0.20806 -0.0096,-0.39532 -0.02861,-0.56176 -0.01907,-0.18725 -0.05722,-0.38491 -0.11445,-0.59297 -0.03815,-0.20806 -0.10491,-0.43693 -0.200289,-0.6866 -0.0763,-0.27047 -0.181215,-0.58256 -0.31474,-0.93626 z m -7.067339,-1.56044 h 6.523697 l -3.17601,-9.2066 z"
           id="text2"
           style="font-size:29.8826px;font-family:'Libre Baskerville';-inkscape-font-specification:'Libre Baskerville';fill:#000000;stroke:#000000;stroke-width:0"
           aria-label="A"
           sodipodi:nodetypes="ccccsscccccccccccccscccccssccccccccc" />
        <path
           d="m 81.45191,253.19282 -17.433139,0.36589 -0.02369,-1.18766 c 0.569416,-0.0206 2.717087,-0.43437 3.058737,-0.53735 0.357919,-0.10294 0.634492,-0.278 0.829721,-0.52511 0.195228,-0.24711 0.32538,-0.59719 0.390457,-1.05023 0.06507,-0.45303 0.09761,-1.03992 0.09761,-1.76067 v -14.39421 c 0,-0.72075 -0.03254,-1.29734 -0.09761,-1.72978 -0.04881,-0.45304 -0.162693,-0.80311 -0.34165,-1.05023 -0.16269,-0.26771 -0.406726,-0.44274 -0.732107,-0.52511 -0.32538,-0.10294 -0.748376,-0.17504 -1.268985,-0.21622 v -1.17378 h 7.418682 v 1.17378 c -0.520609,0.0206 -0.943604,0.0823 -1.268985,0.18533 -0.309112,0.10294 -0.553147,0.28829 -0.732107,0.556 -0.16269,0.26771 -0.276573,0.63837 -0.34165,1.11201 -0.04881,0.47362 -0.07321,1.1017 -0.07321,1.88422 v 13.31311 c 0,0.86488 0.06507,1.57534 0.195228,2.13134 0.146422,0.5354 0.382323,0.95756 0.707704,1.26644 0.34165,0.2883 0.789048,0.49422 1.342195,0.61778 0.553148,0.10295 1.252717,0.15444 2.098707,0.15444 0.927335,0 1.708248,-0.0618 2.342741,-0.18533 0.634493,-0.14416 1.163237,-0.38097 1.586231,-0.71044 0.439264,-0.35009 0.780914,-0.82371 1.02495,-1.42089 0.260304,-0.61778 0.479936,-1.4106 0.658896,-2.37845 h 0.927335 z"
           id="text4"
           style="font-size:27.4554px;font-family:'Libre Baskerville';-inkscape-font-specification:'Libre Baskerville';fill:#000000;stroke:#000000;stroke-width:0"
           aria-label="L"
           sodipodi:nodetypes="ccccssssccccccccccsscccscccccc" />
        <path
           d="m 92.177117,248.26021 4.670417,-13.05766 q 0.398039,-1.11321 0.557262,-1.74503 0.159213,-0.63183 0.159213,-1.1433 0,-0.81234 -0.451119,-1.14329 -0.424579,-0.33096 -1.618719,-0.33096 v -1.1433 h 6.448349 v 1.1433 q -0.61034,0.0903 -1.06146,0.24069 -0.42458,0.15044 -0.76956,0.42122 -0.318426,0.27077 -0.583791,0.72208 -0.238825,0.42122 -0.47766,1.05304 l -7.19137,19.88736 h -0.928774 l -6.846401,-18.74407 q -0.344974,-0.9026 -0.689948,-1.5645 -0.318437,-0.66191 -0.716483,-1.08314 -0.398047,-0.42121 -0.902239,-0.63181 -0.504193,-0.21061 -1.19414,-0.27078 v -1.17339 h 8.650878 v 1.17339 q -0.74302,0 -1.220675,0.0903 -0.45112,0.0602 -0.716485,0.24069 -0.265364,0.15043 -0.371509,0.39113 -0.106146,0.2407 -0.106146,0.54157 0,0.42121 0.132682,0.99286 0.132682,0.54156 0.504192,1.59459 z"
           id="text5"
           style="font-size:28.2559px;font-family:'Libre Baskerville';-inkscape-font-specification:'Libre Baskerville';fill:#000000;stroke:#000000;stroke-width:0"
           aria-label="V" />
        <path
           d="m 109.01086,240.44718 q 1.51585,0 2.52641,-0.18178 1.03863,-0.21208 1.62813,-0.63624 0.61756,-0.42416 0.8702,-1.09071 0.28071,-0.66653 0.28071,-1.57545 h 0.9825 v 8.27116 h -0.9825 q 0,-0.90892 -0.25264,-1.57546 -0.22456,-0.66655 -0.84213,-1.09071 -0.5895,-0.45445 -1.62813,-0.66653 -1.01056,-0.24239 -2.58255,-0.24239 v 6.8472 q 0,0.99981 0.22458,1.66635 0.22456,0.63625 0.75792,1.06041 0.56142,0.39386 1.45969,0.57565 0.89828,0.15148 2.21763,0.15148 1.48777,0 2.5264,-0.21208 1.03863,-0.24238 1.74042,-0.78773 0.70177,-0.54535 1.12284,-1.42398 0.42107,-0.90891 0.70178,-2.24199 h 1.06671 l -0.42107,5.96856 h -17.43219 v -1.15129 q 0.98248,-0.0303 1.57198,-0.18179 0.61756,-0.15149 0.95442,-0.51505 0.33685,-0.36357 0.44914,-1.0301 0.11229,-0.66655 0.11229,-1.72695 v -14.11855 q 0,-1.06041 -0.11229,-1.69665 -0.0842,-0.66654 -0.393,-1.0301 -0.28071,-0.39387 -0.84214,-0.51506 -0.56142,-0.15149 -1.45969,-0.21208 v -1.1513 h 16.22513 l 0.25264,5.33233 h -0.9825 q -0.16842,-1.2119 -0.56142,-1.96933 -0.36492,-0.78773 -1.03863,-1.24219 -0.64564,-0.45445 -1.65619,-0.63624 -1.01057,-0.18179 -2.44219,-0.18179 h -3.56505 q -0.47721,0 -0.47721,0.51506 z"
           id="text6"
           style="font-size:29.163px;font-family:'Libre Baskerville';-inkscape-font-specification:'Libre Baskerville';fill:#000000;stroke:#000000;stroke-width:0"
           aria-label="E" />
        <path
           d="m 124.54344,246.15675 h 0.95255 q 0.18022,1.39575 0.66937,2.51236 0.51489,1.11661 1.26149,1.89203 0.77234,0.77542 1.75064,1.20966 1.00404,0.40322 2.16255,0.40322 1.90511,0 3.01213,-1.08559 1.10703,-1.0856 1.10703,-2.9466 0,-0.77543 -0.23171,-1.42679 -0.20596,-0.65135 -0.72085,-1.24067 -0.51489,-0.62033 -1.39021,-1.20966 -0.84958,-0.58932 -2.16256,-1.27169 -1.59617,-0.83746 -2.67744,-1.61288 -1.08128,-0.77542 -1.72491,-1.61287 -0.64361,-0.83746 -0.9268,-1.76797 -0.25745,-0.96152 -0.25745,-2.17118 0,-1.42678 0.41192,-2.63644 0.43766,-1.20965 1.21,-2.07813 0.77233,-0.89949 1.82787,-1.36474 1.05553,-0.49627 2.31703,-0.49627 1.13276,0 2.11106,0.43424 0.9783,0.43423 1.98234,1.39575 l 0.66936,-1.39575 h 0.59213 l 0.28319,6.17236 h -0.95255 q -0.61787,-2.54339 -1.80213,-3.78406 -1.15851,-1.24068 -2.80617,-1.24068 -1.57042,0 -2.49724,0.93051 -0.92681,0.9305 -0.92681,2.51236 0,0.74441 0.20596,1.36475 0.20596,0.58932 0.66936,1.14762 0.4634,0.52729 1.21,1.08559 0.7466,0.52729 1.85362,1.11662 1.90511,1.02354 3.1666,1.92304 1.26149,0.86848 2.00808,1.76796 0.74661,0.86848 1.05553,1.86102 0.30894,0.96152 0.30894,2.17117 0,1.55085 -0.51489,2.85356 -0.51489,1.30271 -1.44171,2.23321 -0.9268,0.93051 -2.21403,1.4578 -1.28724,0.49627 -2.83192,0.49627 -1.46745,0 -2.65171,-0.49627 -1.15851,-0.49627 -2.3685,-1.67492 l -0.72086,1.51983 h -0.59213 z"
           id="text7"
           style="font-size:28.2581px;font-family:'Libre Baskerville';-inkscape-font-specification:'Libre Baskerville';fill:#000000;stroke:#000000;stroke-width:0"
           aria-label="S" />
      </g>
    </g>
    <g
       id="g8"
       transform="matrix(0.6828115,0,0,1.0676485,166.44739,-175.2221)"
       style="display:inline;fill:#000000">
      <text
         xml:space="preserve"
         style="font-style:normal;font-variant:normal;font-weight:normal;font-stretch:normal;font-size:18.1688px;font-family:'Libre Baskerville';-inkscape-font-specification:'Libre Baskerville';fill:#000000;stroke:#000000;stroke-width:0"
         x="163.35396"
         y="353.66208"
         id="text17"
         transform="scale(1.0582714,0.94493719)"><tspan
           sodipodi:role="line"
           id="tspan9"
           style="font-style:normal;font-variant:normal;font-weight:normal;font-stretch:normal;font-family:'Libre Baskerville';-inkscape-font-specification:'Libre Baskerville';fill:#000000;stroke-width:0"
           x="163.35396"
           y="353.66208" /><tspan
           sodipodi:role="line"
           style="font-style:normal;font-variant:normal;font-weight:normal;font-stretch:normal;font-family:'Libre Baskerville';-inkscape-font-specification:'Libre Baskerville';fill:#000000;stroke-width:0"
           x="163.35396"
           y="376.37308"
           id="tspan17" /></text>
      <path
         d="m 68.144764,356.72934 h -4.85107 q -0.30887,0.74492 -0.526895,1.32632 -0.218026,0.56323 -0.363376,0.98111 -0.127182,0.41789 -0.181688,0.70859 -0.05451,0.2907 -0.05451,0.47239 0,0.50872 0.327039,0.70858 0.327038,0.18169 1.090128,0.18169 v 0.69041 h -4.415019 v -0.69041 q 0.417883,-0.0545 0.708583,-0.14535 0.30887,-0.0908 0.526896,-0.25437 0.236194,-0.16352 0.399713,-0.41788 0.181688,-0.27253 0.345207,-0.65408 l 4.723889,-11.82788 h 0.781258 l 4.124318,10.2472 q 0.417882,1.01745 0.726752,1.63519 0.308869,0.59957 0.59957,0.90844 0.290701,0.30887 0.617739,0.39971 0.345207,0.0908 0.817596,0.0908 v 0.70858 h -5.923029 v -0.70858 q 0.962947,0 1.326323,-0.18169 0.363376,-0.18169 0.363376,-0.59957 0,-0.18169 -0.01817,-0.32704 -0.01817,-0.16352 -0.07268,-0.34521 -0.03634,-0.18168 -0.127182,-0.39971 -0.07268,-0.23619 -0.199857,-0.54506 z M 63.65707,355.8209 h 4.142486 l -2.016736,-5.3598 z m 11.210138,5.97753 h -0.399713 v -3.12503 h 0.45422 q 0.708583,2.5618 2.579969,2.5618 0.726752,0 1.144635,-0.34521 0.436051,-0.36337 0.436051,-1.09013 0,-0.27253 -0.09084,-0.45422 -0.07267,-0.19985 -0.30887,-0.39971 -0.218025,-0.21803 -0.635908,-0.49056 -0.399713,-0.27253 -1.071959,-0.69041 -0.617739,-0.38155 -1.071959,-0.70859 -0.45422,-0.32703 -0.76309,-0.65407 -0.308869,-0.34521 -0.472389,-0.72675 -0.14535,-0.38155 -0.14535,-0.89028 0,-0.61773 0.199857,-1.12646 0.218025,-0.5269 0.581401,-0.89027 0.363376,-0.36338 0.853934,-0.56324 0.490558,-0.21802 1.071959,-0.21802 0.490558,0 1.017453,0.16352 0.526895,0.14535 0.926609,0.39971 l 0.363376,-0.38154 h 0.345207 v 2.6163 h -0.472389 q -0.399713,-1.10829 -0.872102,-1.58068 -0.472389,-0.47239 -1.162803,-0.47239 -0.61774,0 -0.999284,0.32704 -0.363376,0.32704 -0.363376,0.90844 0,0.30887 0.09084,0.54506 0.109012,0.21803 0.327038,0.43605 0.218026,0.21803 0.545064,0.45422 0.345207,0.21803 0.817596,0.50873 0.781258,0.49056 1.326322,0.8721 0.563233,0.38155 0.90844,0.76309 0.345208,0.36338 0.508727,0.76309 0.163519,0.39972 0.163519,0.90844 0,1.28999 -0.835765,2.03491 -0.835765,0.72675 -2.198425,0.72675 -1.417166,0 -2.434619,-0.8176 z m 8.248644,0 h -0.399714 v -3.12503 h 0.45422 q 0.708584,2.5618 2.57997,2.5618 0.726752,0 1.144634,-0.34521 0.436052,-0.36337 0.436052,-1.09013 0,-0.27253 -0.09084,-0.45422 -0.07268,-0.19985 -0.30887,-0.39971 -0.218026,-0.21803 -0.635908,-0.49056 -0.399714,-0.27253 -1.071959,-0.69041 -0.617739,-0.38155 -1.071959,-0.70859 -0.45422,-0.32703 -0.76309,-0.65407 -0.30887,-0.34521 -0.472389,-0.72675 -0.14535,-0.38155 -0.14535,-0.89028 0,-0.61773 0.199857,-1.12646 0.218025,-0.5269 0.581401,-0.89027 0.363376,-0.36338 0.853934,-0.56324 0.490557,-0.21802 1.071959,-0.21802 0.490558,0 1.017453,0.16352 0.526895,0.14535 0.926609,0.39971 l 0.363376,-0.38154 h 0.345207 v 2.6163 h -0.472389 q -0.399713,-1.10829 -0.872102,-1.58068 -0.472389,-0.47239 -1.162804,-0.47239 -0.617739,0 -0.999284,0.32704 -0.363376,0.32704 -0.363376,0.90844 0,0.30887 0.09084,0.54506 0.109013,0.21803 0.327039,0.43605 0.218025,0.21803 0.545064,0.45422 0.345207,0.21803 0.817596,0.50873 0.781258,0.49056 1.326322,0.8721 0.563233,0.38155 0.90844,0.76309 0.345208,0.36338 0.508727,0.76309 0.163519,0.39972 0.163519,0.90844 0,1.28999 -0.835765,2.03491 -0.835765,0.72675 -2.198425,0.72675 -1.417166,0 -2.434619,-0.8176 z m 16.170241,-1.6897 q -1.544348,1.87139 -3.833617,1.87139 -1.071959,0 -1.944062,-0.34521 -0.872102,-0.36337 -1.50801,-0.99928 -0.617739,-0.65408 -0.962947,-1.54435 -0.345207,-0.90844 -0.345207,-1.99857 0,-1.10829 0.363376,-2.05307 0.363376,-0.94478 1.017453,-1.61703 0.672246,-0.67224 1.580686,-1.05379 0.926609,-0.38154 2.016737,-0.38154 1.762373,0 2.72532,0.96295 0.962946,0.94477 0.962946,2.72532 0,0.25436 -0.109013,0.30887 -0.09084,0.0545 -0.45422,0.0545 H 92.818 q -0.03634,0.14535 -0.05451,0.36338 -0.01817,0.19985 -0.01817,0.45422 0,0.94478 0.218025,1.72603 0.236195,0.76309 0.654077,1.30816 0.436051,0.54506 1.017453,0.85393 0.59957,0.2907 1.326322,0.2907 0.76309,0 1.417167,-0.32704 0.654077,-0.3452 1.344491,-1.10829 z m -2.997852,-4.90557 q 0.363376,0 0.581401,-0.0182 0.218026,-0.0182 0.327039,-0.0727 0.109013,-0.0545 0.14535,-0.14535 0.03634,-0.10901 0.03634,-0.27253 0,-0.83576 -0.545064,-1.32632 -0.526895,-0.50873 -1.453504,-0.50873 -1.962231,0 -2.434619,2.34378 z m 5.486979,6.59527 h -0.39972 v -3.12503 h 0.45422 q 0.70859,2.5618 2.57997,2.5618 0.72675,0 1.14464,-0.34521 0.43605,-0.36337 0.43605,-1.09013 0,-0.27253 -0.0909,-0.45422 -0.0727,-0.19985 -0.30887,-0.39971 -0.21802,-0.21803 -0.6359,-0.49056 -0.39972,-0.27253 -1.07196,-0.69041 -0.61774,-0.38155 -1.07196,-0.70859 -0.45422,-0.32703 -0.76309,-0.65407 -0.30887,-0.34521 -0.47239,-0.72675 -0.14535,-0.38155 -0.14535,-0.89028 0,-0.61773 0.19986,-1.12646 0.21802,-0.5269 0.5814,-0.89027 0.36337,-0.36338 0.85393,-0.56324 0.49056,-0.21802 1.07196,-0.21802 0.49056,0 1.01745,0.16352 0.5269,0.14535 0.92661,0.39971 l 0.36338,-0.38154 h 0.34521 v 2.6163 h -0.47239 q -0.39972,-1.10829 -0.87211,-1.58068 -0.47238,-0.47239 -1.1628,-0.47239 -0.61774,0 -0.99928,0.32704 -0.36338,0.32704 -0.36338,0.90844 0,0.30887 0.0909,0.54506 0.10901,0.21803 0.32703,0.43605 0.21803,0.21803 0.54507,0.45422 0.3452,0.21803 0.81759,0.50873 0.78126,0.49056 1.32633,0.8721 0.56323,0.38155 0.90844,0.76309 0.3452,0.36338 0.50872,0.76309 0.16352,0.39972 0.16352,0.90844 0,1.28999 -0.83576,2.03491 -0.83577,0.72675 -2.19843,0.72675 -1.41716,0 -2.43462,-0.8176 z m 8.24864,0 h -0.39971 v -3.12503 h 0.45422 q 0.70858,2.5618 2.57997,2.5618 0.72675,0 1.14463,-0.34521 0.43605,-0.36337 0.43605,-1.09013 0,-0.27253 -0.0908,-0.45422 -0.0727,-0.19985 -0.30887,-0.39971 -0.21803,-0.21803 -0.63591,-0.49056 -0.39971,-0.27253 -1.07196,-0.69041 -0.61774,-0.38155 -1.07196,-0.70859 -0.45422,-0.32703 -0.76309,-0.65407 -0.30887,-0.34521 -0.47238,-0.72675 -0.14535,-0.38155 -0.14535,-0.89028 0,-0.61773 0.19985,-1.12646 0.21803,-0.5269 0.5814,-0.89027 0.36338,-0.36338 0.85394,-0.56324 0.49055,-0.21802 1.07196,-0.21802 0.49055,0 1.01745,0.16352 0.52689,0.14535 0.92661,0.39971 l 0.36337,-0.38154 h 0.34521 v 2.6163 h -0.47239 q -0.39971,-1.10829 -0.8721,-1.58068 -0.47239,-0.47239 -1.1628,-0.47239 -0.61774,0 -0.99929,0.32704 -0.36337,0.32704 -0.36337,0.90844 0,0.30887 0.0908,0.54506 0.10901,0.21803 0.32704,0.43605 0.21802,0.21803 0.54506,0.45422 0.34521,0.21803 0.8176,0.50873 0.78126,0.49056 1.32632,0.8721 0.56323,0.38155 0.90844,0.76309 0.34521,0.36338 0.50873,0.76309 0.16352,0.39972 0.16352,0.90844 0,1.28999 -0.83577,2.03491 -0.83576,0.72675 -2.19842,0.72675 -1.41717,0 -2.43462,-0.8176 z m 12.59099,-9.81115 q 1.03562,0 1.96223,0.38154 0.92661,0.36338 1.61702,1.01746 0.70858,0.65407 1.1083,1.56251 0.41788,0.89027 0.41788,1.96223 0,1.1083 -0.41788,2.03491 -0.39972,0.92661 -1.1083,1.59885 -0.69041,0.67225 -1.61702,1.05379 -0.92661,0.38155 -1.96223,0.38155 -1.01746,0 -1.94406,-0.36338 -0.90844,-0.38154 -1.59886,-1.05379 -0.69041,-0.67224 -1.09013,-1.59885 -0.39971,-0.94478 -0.39971,-2.05308 0,-1.07196 0.39971,-1.9804 0.39972,-0.90844 1.09013,-1.56251 0.69042,-0.65408 1.59886,-1.01745 0.9266,-0.36338 1.94406,-0.36338 z m 0,0.8721 q -0.67225,0 -1.23548,0.2907 -0.54506,0.2907 -0.94478,0.83577 -0.38154,0.52689 -0.59957,1.28998 -0.19986,0.74492 -0.19986,1.65336 0,0.94478 0.19986,1.70787 0.21803,0.76309 0.59957,1.30815 0.39972,0.5269 0.94478,0.8176 0.54506,0.2907 1.23548,0.2907 0.69041,0 1.25364,-0.2907 0.56324,-0.2907 0.96295,-0.83577 0.39972,-0.54506 0.61774,-1.30815 0.21803,-0.76309 0.21803,-1.6897 0,-0.90844 -0.21803,-1.65336 -0.21802,-0.74492 -0.61774,-1.27181 -0.39971,-0.54507 -0.96295,-0.83577 -0.56323,-0.30887 -1.25364,-0.30887 z m 10.01099,6.05021 q 0,0.74492 0.0363,1.18097 0.0363,0.43606 0.18169,0.67225 0.16352,0.21803 0.45422,0.2907 0.2907,0.0727 0.81759,0.10901 v 0.63591 h -4.8329 v -0.63591 q 0.5269,-0.0182 0.83577,-0.0908 0.30887,-0.0908 0.47239,-0.30887 0.16352,-0.21803 0.19985,-0.61774 0.0545,-0.41788 0.0545,-1.1083 v -2.12575 q 0,-1.23547 -0.0363,-1.92589 -0.0182,-0.69041 -0.18169,-1.01745 -0.14535,-0.32704 -0.47238,-0.38155 -0.32704,-0.0727 -0.90844,-0.0727 v -0.63591 l 3.17954,-0.69041 0.25436,2.25293 h 0.0727 q 0.2362,-0.54507 0.58141,-0.99929 0.36337,-0.45422 0.78125,-0.76309 0.41789,-0.32703 0.87211,-0.50872 0.45422,-0.18169 0.92661,-0.18169 0.5814,0 0.90844,0.2907 0.3452,0.27253 0.3452,0.74492 0,0.43605 -0.27253,0.69042 -0.27253,0.23619 -0.78126,0.23619 -0.2907,0 -0.49056,-0.0727 -0.19985,-0.0727 -0.36337,-0.14535 -0.14535,-0.0908 -0.2907,-0.16352 -0.12718,-0.0727 -0.2907,-0.0727 -0.49056,0 -0.98112,0.63591 -0.49056,0.61774 -0.76309,1.58068 -0.14535,0.5269 -0.23619,1.19914 -0.0727,0.65408 -0.0727,1.38083 z m 8.77552,0 q 0,0.70859 0.0545,1.14464 0.0727,0.41788 0.25436,0.67224 0.18169,0.2362 0.50873,0.32704 0.32703,0.0908 0.8721,0.10901 v 0.63591 h -5.21445 v -0.63591 q 0.54507,-0.0182 0.89027,-0.10901 0.34521,-0.10901 0.5269,-0.32704 0.19986,-0.23619 0.25436,-0.63591 0.0727,-0.41788 0.0727,-1.05379 v -2.3256 q 0,-1.05379 -0.0363,-1.72604 -0.0182,-0.69041 -0.0908,-0.94478 -0.0908,-0.41788 -0.41789,-0.56323 -0.32704,-0.16352 -1.23548,-0.16352 v -0.63591 l 3.56109,-0.69041 z m -2.08941,-10.61058 q 0,-0.47239 0.32704,-0.79942 0.32703,-0.32704 0.79942,-0.32704 0.47239,0 0.79943,0.32704 0.32704,0.32703 0.32704,0.79942 0,0.47239 -0.32704,0.79943 -0.32704,0.32704 -0.79943,0.32704 -0.47239,0 -0.79942,-0.32704 -0.32704,-0.32704 -0.32704,-0.79943 z m 10.48339,8.12146 q -1.03562,0.39971 -1.76237,0.78125 -0.70859,0.38155 -1.14464,0.76309 -0.43605,0.38155 -0.63591,0.76309 -0.18168,0.38155 -0.18168,0.78126 0,0.59957 0.39971,0.98112 0.39971,0.38154 1.05379,0.38154 0.47239,0 0.8721,-0.23619 0.41789,-0.2362 0.72676,-0.63591 0.30886,-0.41788 0.49055,-0.96295 0.18169,-0.56323 0.18169,-1.18097 z m 0,-0.78126 v -0.74492 q 0,-2.2166 -1.88955,-2.2166 -0.30887,0 -0.5269,0.0545 -0.21803,0.0545 -0.36338,0.18169 -0.14535,0.12718 -0.27253,0.36337 -0.10901,0.2362 -0.21802,0.58141 -0.19986,0.52689 -0.39972,0.70858 -0.18168,0.16352 -0.54506,0.16352 -0.90844,0 -0.90844,-0.90844 0,-0.8721 0.92661,-1.34449 0.92661,-0.49056 2.63447,-0.49056 1.81688,0 2.57997,0.65408 0.76309,0.6359 0.76309,2.18025 v 4.06981 q 0,2.07125 0.8176,2.07125 0.25436,0 0.49056,-0.0545 0.23619,-0.0727 0.39971,-0.34521 l 0.25436,0.43605 q -0.21802,0.41789 -0.79942,0.70859 -0.58141,0.27253 -1.21731,0.27253 -0.79943,0 -1.19914,-0.50873 -0.38155,-0.50872 -0.38155,-1.43533 h -0.0908 q -0.47239,0.89027 -1.30816,1.41716 -0.83576,0.50873 -1.85321,0.50873 -1.14464,0 -1.79872,-0.5814 -0.65407,-0.5814 -0.65407,-1.56252 0,-0.43605 0.14535,-0.83576 0.16352,-0.39972 0.50872,-0.76309 0.34521,-0.36338 0.90844,-0.70859 0.56324,-0.36337 1.38083,-0.72675 z m 21.25753,-7.83075 h 0.50873 l 0.16352,4.17882 h -0.67225 q -0.39971,-1.59886 -1.54435,-2.5073 -1.14463,-0.90844 -2.76165,-0.90844 -1.1083,0 -1.9804,0.43606 -0.87211,0.43605 -1.47168,1.25364 -0.59957,0.8176 -0.9266,1.99857 -0.30887,1.18097 -0.30887,2.67081 0,2.92518 1.21731,4.50587 1.21731,1.56251 3.52474,1.56251 3.50658,0 4.50587,-3.7246 h 0.74492 v 4.52403 h -0.63591 l -0.41788,-1.43533 q -1.90773,1.61702 -4.61488,1.61702 -1.54435,0 -2.79799,-0.49056 -1.23548,-0.49056 -2.12575,-1.38083 -0.87211,-0.90844 -1.36266,-2.19842 -0.47239,-1.28999 -0.47239,-2.87067 0,-1.65336 0.50872,-3.01602 0.50873,-1.36266 1.41717,-2.34378 0.92661,-0.98111 2.19842,-1.50801 1.28999,-0.54506 2.83434,-0.54506 1.09013,0 2.05307,0.30887 0.96295,0.30887 2.08941,0.99928 z m 7.95794,4.17882 q 1.03562,0 1.96223,0.38154 0.92661,0.36338 1.61702,1.01746 0.70859,0.65407 1.1083,1.56251 0.41788,0.89027 0.41788,1.96223 0,1.1083 -0.41788,2.03491 -0.39971,0.92661 -1.1083,1.59885 -0.69041,0.67225 -1.61702,1.05379 -0.92661,0.38155 -1.96223,0.38155 -1.01745,0 -1.94406,-0.36338 -0.90844,-0.38154 -1.59886,-1.05379 -0.69041,-0.67224 -1.09012,-1.59885 -0.39972,-0.94478 -0.39972,-2.05308 0,-1.07196 0.39972,-1.9804 0.39971,-0.90844 1.09012,-1.56251 0.69042,-0.65408 1.59886,-1.01745 0.92661,-0.36338 1.94406,-0.36338 z m 0,0.8721 q -0.67225,0 -1.23548,0.2907 -0.54506,0.2907 -0.94478,0.83577 -0.38154,0.52689 -0.59957,1.28998 -0.19985,0.74492 -0.19985,1.65336 0,0.94478 0.19985,1.70787 0.21803,0.76309 0.59957,1.30815 0.39972,0.5269 0.94478,0.8176 0.54507,0.2907 1.23548,0.2907 0.69041,0 1.25365,-0.2907 0.56323,-0.2907 0.96294,-0.83577 0.39972,-0.54506 0.61774,-1.30815 0.21803,-0.76309 0.21803,-1.6897 0,-0.90844 -0.21803,-1.65336 -0.21802,-0.74492 -0.61774,-1.27181 -0.39971,-0.54507 -0.96294,-0.83577 -0.56324,-0.30887 -1.25365,-0.30887 z m 9.90198,6.08655 q 0,0.74492 0.0363,1.18097 0.0363,0.41788 0.18168,0.65408 0.16352,0.21802 0.45422,0.2907 0.30887,0.0727 0.83577,0.10901 v 0.61774 h -4.76023 v -0.61774 q 0.50873,-0.0363 0.79943,-0.10901 0.30887,-0.0727 0.47239,-0.2907 0.16352,-0.21803 0.19986,-0.61774 0.0545,-0.39971 0.0545,-1.09013 v -2.41645 q 0,-2.16209 -0.10901,-2.63448 -0.0545,-0.23619 -0.14535,-0.38154 -0.0727,-0.16352 -0.2362,-0.23619 -0.16351,-0.0908 -0.41788,-0.10902 -0.25436,-0.0363 -0.65407,-0.0363 v -0.58141 l 2.907,-0.69041 0.21803,1.79871 h 0.0727 q 0.69042,-0.85393 1.61703,-1.32632 0.92661,-0.47239 2.01673,-0.47239 0.83577,0 1.52618,0.27253 0.69042,0.27253 1.05379,0.74492 0.30887,0.41788 0.43605,1.09013 0.12719,0.65408 0.12719,1.81688 v 3.03419 q 0,0.74492 0.0363,1.18097 0.0545,0.41788 0.19986,0.65408 0.14535,0.21802 0.43605,0.2907 0.30887,0.0727 0.79943,0.10901 v 0.61774 h -4.70572 v -0.61774 q 0.50873,-0.0182 0.79943,-0.0908 0.30887,-0.0908 0.45422,-0.30887 0.16352,-0.21803 0.19985,-0.61774 0.0545,-0.41788 0.0545,-1.09013 v -2.39828 q 0,-1.03562 -0.10901,-1.74421 -0.10902,-0.70858 -0.36338,-1.14463 -0.23619,-0.43605 -0.63591,-0.61774 -0.39971,-0.19986 -0.96294,-0.19986 -0.8176,0 -1.50801,0.43606 -0.67225,0.41788 -1.05379,1.1628 -0.0909,0.18169 -0.16352,0.34521 -0.0545,0.16352 -0.0909,0.38154 -0.0363,0.21803 -0.0545,0.50873 -0.0182,0.27253 -0.0182,0.70858 z m 9.32058,-5.63233 v -0.67224 q 0.96294,-0.56324 1.50801,-1.12647 0.54506,-0.56323 0.83576,-1.34449 h 0.5269 v 2.28927 h 2.43462 v 0.85393 h -2.43462 v 5.52332 q 0,0.6359 0.0545,1.07196 0.0727,0.43605 0.21803,0.70858 0.14535,0.25436 0.38154,0.36338 0.2362,0.10901 0.59957,0.10901 0.45422,0 0.76309,-0.18169 0.32704,-0.19986 0.63591,-0.65408 l 0.45422,0.34521 q -0.25436,0.67225 -0.89027,1.03562 -0.61774,0.34521 -1.54435,0.34521 -1.19914,0 -1.83505,-0.56323 -0.61774,-0.58141 -0.61774,-1.65336 v -6.44993 z m 12.48197,3.10687 q -1.03562,0.39971 -1.76237,0.78125 -0.70859,0.38155 -1.14464,0.76309 -0.43605,0.38155 -0.63591,0.76309 -0.18168,0.38155 -0.18168,0.78126 0,0.59957 0.39971,0.98112 0.39971,0.38154 1.05379,0.38154 0.47239,0 0.8721,-0.23619 0.41788,-0.2362 0.72675,-0.63591 0.30887,-0.41788 0.49056,-0.96295 0.18169,-0.56323 0.18169,-1.18097 z m 0,-0.78126 v -0.74492 q 0,-2.2166 -1.88956,-2.2166 -0.30887,0 -0.52689,0.0545 -0.21803,0.0545 -0.36338,0.18169 -0.14535,0.12718 -0.27253,0.36337 -0.10901,0.2362 -0.21802,0.58141 -0.19986,0.52689 -0.39972,0.70858 -0.18169,0.16352 -0.54506,0.16352 -0.90844,0 -0.90844,-0.90844 0,-0.8721 0.92661,-1.34449 0.92661,-0.49056 2.63447,-0.49056 1.81688,0 2.57997,0.65408 0.76309,0.6359 0.76309,2.18025 v 4.06981 q 0,2.07125 0.8176,2.07125 0.25436,0 0.49056,-0.0545 0.23619,-0.0727 0.39971,-0.34521 l 0.25436,0.43605 q -0.21802,0.41789 -0.79943,0.70859 -0.5814,0.27253 -1.2173,0.27253 -0.79943,0 -1.19915,-0.50873 -0.38154,-0.50872 -0.38154,-1.43533 h -0.0908 q -0.47239,0.89027 -1.30816,1.41716 -0.83576,0.50873 -1.85322,0.50873 -1.14463,0 -1.79871,-0.5814 -0.65407,-0.5814 -0.65407,-1.56252 0,-0.43605 0.14535,-0.83576 0.16352,-0.39972 0.50872,-0.76309 0.34521,-0.36338 0.90844,-0.70859 0.56324,-0.36337 1.38083,-0.72675 z m -3.16137,-5.66867 2.36194,-2.16208 q 0.65408,-0.59958 1.21731,-0.59958 0.30887,0 0.49056,0.16352 0.19986,0.16352 0.19986,0.47239 0,0.2907 -0.25437,0.5269 -0.23619,0.21802 -0.67224,0.41788 l -2.48913,1.18097 z m 10.3199,8.03061 q 0,0.69042 0.19985,1.27182 0.19986,0.56323 0.54507,0.98111 0.36337,0.39972 0.85393,0.63591 0.50873,0.2362 1.09013,0.2362 0.63591,0 1.14463,-0.29071 0.5269,-0.2907 0.89028,-0.81759 0.38154,-0.54507 0.5814,-1.28999 0.21802,-0.76309 0.21802,-1.68969 0,-0.92661 -0.21802,-1.6897 -0.21803,-0.78126 -0.59957,-1.32633 -0.38155,-0.56323 -0.92661,-0.8721 -0.5269,-0.30887 -1.16281,-0.30887 -0.74492,0 -1.32632,0.36338 -0.5814,0.34521 -0.89027,0.98111 -0.39971,0.79943 -0.39971,2.19843 z m -0.0363,-4.5422 h 0.0727 q 0.5814,-0.76309 1.27181,-1.10829 0.70858,-0.36338 1.63519,-0.36338 0.98112,0 1.81688,0.38154 0.85394,0.38155 1.47168,1.05379 0.6359,0.67225 0.98111,1.59886 0.36338,0.90844 0.36338,1.96223 0,1.07196 -0.36338,1.99857 -0.36337,0.90844 -0.99928,1.58068 -0.61774,0.67225 -1.47168,1.05379 -0.85393,0.38155 -1.85321,0.38155 -1.03562,0 -1.94406,-0.38155 -0.89028,-0.38154 -1.47168,-1.03562 l -0.85393,1.21731 h -0.39971 v -10.97395 q 0,-1.83505 -0.2362,-2.34378 -0.0545,-0.12718 -0.12718,-0.19986 -0.0727,-0.0908 -0.21803,-0.14535 -0.14535,-0.0727 -0.39971,-0.12718 -0.25436,-0.0545 -0.69041,-0.10901 v -0.45422 l 3.41573,-0.72675 z m 12.62731,5.45064 q 0,0.70859 0.0545,1.14464 0.0727,0.41788 0.25437,0.67224 0.18168,0.2362 0.50872,0.32704 0.32704,0.0908 0.8721,0.10901 v 0.63591 h -5.21444 v -0.63591 q 0.54506,-0.0182 0.89027,-0.10901 0.34521,-0.10901 0.5269,-0.32704 0.19985,-0.23619 0.25436,-0.63591 0.0727,-0.41788 0.0727,-1.05379 v -2.3256 q 0,-1.05379 -0.0363,-1.72604 -0.0182,-0.69041 -0.0909,-0.94478 -0.0908,-0.41788 -0.41788,-0.56323 -0.32704,-0.16352 -1.23548,-0.16352 v -0.63591 l 3.56109,-0.69041 z m -2.08942,-10.61058 q 0,-0.47239 0.32704,-0.79942 0.32704,-0.32704 0.79943,-0.32704 0.47239,0 0.79943,0.32704 0.32704,0.32703 0.32704,0.79942 0,0.47239 -0.32704,0.79943 -0.32704,0.32704 -0.79943,0.32704 -0.47239,0 -0.79943,-0.32704 -0.32704,-0.32704 -0.32704,-0.79943 z m 7.93975,10.66509 q 0,0.69041 0.0545,1.1083 0.0545,0.41788 0.21802,0.65407 0.18169,0.2362 0.49056,0.32704 0.32704,0.0908 0.85393,0.10901 v 0.63591 h -5.01459 v -0.63591 q 0.54507,-0.0182 0.87211,-0.10901 0.32704,-0.10901 0.50872,-0.32704 0.19986,-0.21802 0.25437,-0.59957 0.0727,-0.39971 0.0727,-1.03562 v -7.83075 q 0,-0.98112 -0.0363,-1.63519 -0.0182,-0.67225 -0.0727,-0.90844 -0.0908,-0.41789 -0.43605,-0.56324 -0.32704,-0.14535 -1.19914,-0.14535 v -0.61774 l 3.4339,-0.67224 z"
         id="text18"
         style="font-size:18.1688px;font-family:'Libre Baskerville';-inkscape-font-specification:'Libre Baskerville';stroke:#000000;stroke-width:0"
         transform="scale(1.0582714,0.94493719)"
         aria-label="Assessoria Contábil&#10;&#10;" />
    </g>
    <g
       id="g3"
       transform="matrix(0.92543866,0,0,1.2937636,56.674405,-6.0581032)"
       style="display:inline">
      <path
         style="fill:#e89f12;fill-opacity:1;stroke-width:0.520939"
         d="M 72.664775,88.67522 C 77.7777,88.405585 77.7777,88.405585 77.7777,88.405585 l 12.493467,34.356575 -14.380625,-2.10279 -4.620529,-12.28064 -4.489155,11.14637 -5.46387,-0.42171 z"
         id="path8" />
      <path
         style="fill:#000000;fill-opacity:1;stroke-width:0.520939"
         d="m 97.995122,88.447815 4.908828,-0.06661 13.88102,38.021755 -14.23161,-1.27233 -6.187708,-17.4001 -4.102582,10.86882 -3.224584,-7.61922 z"
         id="path45" />
      <path
         style="fill:#e89f12;fill-opacity:1;stroke-width:0.520939"
         d="m 57.255157,129.88556 5.097428,0.65003 -13.342697,36.19914 -5.302055,-0.0946 z"
         id="path49" />
      <path
         style="fill:#e89f12;fill-opacity:1;stroke-width:0.520939"
         d="m 80.588842,133.53151 14.288473,2.53045 11.120265,30.35704 -13.471223,0.15888 z"
         id="path50" />
      <path
         style="fill:#000000;stroke:#000000;stroke-width:0"
         d="m 30.846647,133.94049 c 13.373176,-16.46927 37.127058,-13.34837 55.455169,-9.1535 16.219254,4.22878 45.419044,2.78145 60.556604,-2.22062 -5.65562,14.18231 -41.00697,10.27336 -54.031444,8.75646 -20.477576,-4.76346 -42.82379,-9.03289 -61.980329,2.61766 z"
         id="path38"
         sodipodi:nodetypes="ccccc" />
      <path
         style="fill:#000000;stroke:#000000;stroke-width:0"
         d="m 69.590483,166.07752 c -0.465865,-0.0606 -0.847026,-0.18245 -0.847026,-0.27075 0,-0.54621 10.299356,-26.58642 10.452024,-26.42619 0.103588,0.10872 0.733551,1.6354 1.399918,3.39262 l 1.21157,3.19494 -4.000772,10.08116 -4.000767,10.08116 -1.683961,0.0286 c -0.926177,0.0157 -2.065122,-0.021 -2.530986,-0.0816 z"
         id="path1" />
      <path
         style="fill:#000000;stroke:#000000;stroke-width:0"
         d="m 112.58033,152.10329 c -2.90132,-7.89099 -5.27277,-14.40807 -5.26987,-14.48242 0.003,-0.0743 2.96823,-0.13292 6.58962,-0.13016 l 6.58437,0.005 5.293,14.27669 c 2.91114,7.85219 5.25512,14.30938 5.20884,14.34933 -0.0463,0.0399 -3.01965,0.13026 -6.60748,0.20071 l -6.52333,0.12808 z"
         id="path2" />
    </g>
    <path
       id="rect27"
       style="stroke:#000000;stroke-width:0"
       d="m 197.5593,103.53291 h 0.41099 v 115.61857 h -0.41099 z" />
  </g>
</svg>
