<?xml version="1.0" encoding="UTF-8" standalone="no"?>
<!-- Created with Inkscape (http://www.inkscape.org/) -->

<svg
   version="1.1"
   id="svg1"
   width="389"
   height="336"
   viewBox="0 0 389 336"
   sodipodi:docname="Apenas  o simbolo.svg"
   inkscape:version="1.3.2 (091e20ef0f, 2023-11-25, custom)"
   xmlns:inkscape="http://www.inkscape.org/namespaces/inkscape"
   xmlns:sodipodi="http://sodipodi.sourceforge.net/DTD/sodipodi-0.dtd"
   xmlns="http://www.w3.org/2000/svg"
   xmlns:svg="http://www.w3.org/2000/svg">
  <defs
     id="defs1" />
  <sodipodi:namedview
     id="namedview1"
     pagecolor="#ffffff"
     bordercolor="#000000"
     borderopacity="0.25"
     inkscape:showpageshadow="2"
     inkscape:pageopacity="0.0"
     inkscape:pagecheckerboard="0"
     inkscape:deskcolor="#d1d1d1"
     inkscape:zoom="1.4142136"
     inkscape:cx="121.26881"
     inkscape:cy="186.67619"
     inkscape:window-width="1920"
     inkscape:window-height="1010"
     inkscape:window-x="0"
     inkscape:window-y="0"
     inkscape:window-maximized="1"
     inkscape:current-layer="g2"
     showgrid="false">
    <inkscape:grid
       id="grid6"
       units="px"
       originx="0"
       originy="0"
       spacingx="1"
       spacingy="1"
       empcolor="#0099e5"
       empopacity="0.30196078"
       color="#0099e5"
       opacity="0.14901961"
       empspacing="5"
       dotted="false"
       gridanglex="30"
       gridanglez="30"
       visible="false" />
  </sodipodi:namedview>
  <g
     inkscape:groupmode="layer"
     inkscape:label="Image"
     id="g1"
     style="display:inline">
    <g
       id="g2">
      <path
         style="fill:#7b7b7b;fill-opacity:0.992157;stroke-width:0.0883883"
         d=""
         id="path47" />
      <text
         xml:space="preserve"
         style="fill:#000000;stroke-width:0.177"
         x="296.29532"
         y="240.85342"
         id="text3"><tspan
           sodipodi:role="line"
           id="tspan3"
           x="296.29532"
           y="240.85342" /></text>
      <text
         xml:space="preserve"
         style="font-style:normal;font-variant:normal;font-weight:normal;font-stretch:normal;font-family:sans-serif;-inkscape-font-specification:sans-serif;fill:#000000;stroke:#000000;stroke-width:0"
         x="315.66824"
         y="267.65579"
         id="text19"><tspan
           sodipodi:role="line"
           id="tspan19"
           x="315.66824"
           y="267.65579" /></text>
      <g
         id="g3"
         transform="translate(9.222656,27.291015)">
        <path
           style="fill:#e89f12;fill-opacity:1"
           d="m 163.44416,60.978292 c 9.80903,-0.5179 9.80903,-0.5179 9.80903,-0.5179 l 23.96843,65.990188 -27.5889,-4.03893 -8.86438,-23.587953 -8.61234,21.409313 -10.48231,-0.80999 z"
           id="path8" />
        <path
           style="fill:#000000"
           d="m 212.03985,60.541504 9.41748,-0.12793 26.63041,73.030046 -27.30302,-2.4438 -11.87097,-33.421156 -7.87071,20.876226 -6.18629,-14.63458 z"
           id="path45" />
        <path
           style="fill:#000000;fill-opacity:1"
           d="m 229.26438,154.41297 12.65544,0.18213 1.70488,-0.0217 3.25631,0.02 5.10243,-0.14602 3.28346,-0.22883 20.369,54.98842 -0.14634,0.88389 -25.5459,0.50195 z"
           id="path46"
           sodipodi:nodetypes="cccccccccc" />
        <path
           style="fill:#000000;fill-opacity:1"
           d="m 175.83868,156.65796 5.42725,14.38013 -15.52417,39.18676 -10.52002,-0.35644 z"
           id="path48" />
        <path
           style="fill:#e89f12;fill-opacity:1"
           d="m 133.88116,140.13281 9.7793,1.24854 -25.59766,69.52929 -10.17187,-0.18164 z"
           id="path49" />
        <path
           style="fill:#e89f12;fill-opacity:1"
           d="m 178.6463,147.13574 27.41211,4.86035 21.33398,58.30811 -25.84424,0.30517 z"
           id="path50" />
        <path
           style="fill:#000000;stroke:#000000;stroke-width:0"
           d="m 83.217039,147.9213 c 25.656131,-31.63326 71.227411,-25.63881 106.389471,-17.58155 31.11626,8.12242 87.13539,5.34246 116.17645,-4.26523 -10.85018,27.24058 -78.67093,19.73249 -103.65808,16.81892 -39.28576,-9.14939 -82.15646,-17.34987 -118.907841,5.02786 z"
           id="path38"
           sodipodi:nodetypes="ccccc" />
      </g>
    </g>
  </g>
</svg>
